<svg xmlns="http://www.w3.org/2000/svg" width="171" height="148" viewBox="0 0 171 148" fill="none"><path d="M8.13186 82.3867C32.7985 67.7201 97.4319 47.1867 158.632 82.3867" stroke="#2C6CB1"></path><path d="M162.66 83.6676L160.876 77.6854C160.834 77.5469 160.741 77.4326 160.613 77.3635C160.485 77.2944 160.339 77.2791 160.2 77.3205L159.76 77.4519C159.473 77.5376 159.309 77.8404 159.395 78.127L160.894 83.1505L155.865 84.6509C155.726 84.6922 155.612 84.7853 155.543 84.9131C155.474 85.041 155.459 85.1876 155.5 85.3261L155.631 85.7665C155.673 85.905 155.766 86.0193 155.894 86.0884C156.021 86.1575 156.168 86.1727 156.307 86.1314L162.294 84.345C162.433 84.3035 162.548 84.2098 162.616 84.0817C162.686 83.9534 162.702 83.8063 162.66 83.6676Z" fill="#2C6CB1"></path></svg>