<svg xmlns="http://www.w3.org/2000/svg" width="88" height="88" viewBox="0 0 88 88" fill="none"><circle cx="43.9162" cy="43.9162" r="43.9162" fill="#2C6CB1"></circle><path d="M57.5297 57.7891L49.2826 37.6872C48.8263 36.5778 48.5921 35.3897 48.5932 34.1901V28.8765C48.5932 28.3043 48.8161 27.7663 49.2207 27.3617C49.7141 26.8683 49.986 26.2123 49.986 25.5145V24.7617C49.986 24.341 49.6447 24 49.2243 24H38.5891C38.1683 24 37.8274 24.341 37.8274 24.7617V25.5145C37.8274 26.2123 38.099 26.8683 38.5924 27.3617C38.997 27.7663 39.2199 28.3043 39.2199 28.8768V34.19C39.2199 35.3955 38.9881 36.5719 38.5305 37.6871L36.2644 43.2108L36.2617 43.217L30.2835 57.7891C30.0475 58.3627 29.9567 58.9856 30.0191 59.6026C30.0815 60.2197 30.2951 60.8118 30.6411 61.3266C30.986 61.842 31.4528 62.2644 32 62.5563C32.5471 62.8482 33.1579 63.0006 33.7781 63H54.035C54.6552 63.0006 55.266 62.8481 55.8133 62.5563C56.3605 62.2644 56.8273 61.842 57.1724 61.3266C57.5181 60.8117 57.7316 60.2196 57.794 59.6026C57.8563 58.9855 57.7655 58.3627 57.5297 57.7891ZM39.9399 38.2652C40.4731 36.9659 40.7433 35.5948 40.7433 34.19V28.8765C40.7433 27.8976 40.3621 26.9769 39.6697 26.2845C39.467 26.083 39.3524 25.8093 39.3508 25.5234H48.4625C48.4609 25.8094 48.3461 26.083 48.1433 26.2845C47.4512 26.9769 47.0698 27.8973 47.0698 28.8765V34.1897C47.0698 35.5945 47.3402 36.9656 47.8731 38.2649L49.7122 42.7478H38.1008L39.9399 38.2652ZM55.9069 60.478C55.4813 61.1127 54.7991 61.4766 54.035 61.4766H33.7781C33.0142 61.4766 32.3319 61.1127 31.9061 60.478C31.5852 59.9992 31.4625 59.444 31.5459 58.8965H32.8009C33.2214 58.8965 33.5627 58.5553 33.5627 58.1348C33.5627 57.7141 33.2214 57.3731 32.8009 57.3731H32.1011L32.9758 55.2403H34.2607C34.6814 55.2403 35.0224 54.899 35.0224 54.4786C35.0224 54.0578 34.6814 53.7169 34.2607 53.7169H33.601L34.4758 51.584H35.7969C36.2176 51.584 36.5587 51.2428 36.5587 50.8223C36.5587 50.4016 36.2176 50.0606 35.7969 50.0606H35.1009L35.976 47.9278H37.3329C37.7536 47.9278 38.0946 47.5865 38.0946 47.1661C38.0946 46.7453 37.7536 46.4044 37.3329 46.4044H36.6008L37.476 44.2715H50.3371L56.1202 58.3675C56.41 59.0742 56.3323 59.8437 55.9069 60.478Z" fill="white"></path><path d="M53.7671 57.8366C53.6889 57.652 53.5412 57.5056 53.3559 57.4292C53.1705 57.3528 52.9626 57.3525 52.777 57.4284C52.5915 57.5043 52.4434 57.6503 52.3648 57.8347C52.2861 58.0191 52.2834 58.2271 52.3571 58.4135L52.3612 58.423C52.399 58.5156 52.4548 58.5998 52.5252 58.6709C52.5956 58.7419 52.6794 58.7984 52.7716 58.8371C52.8639 58.8758 52.9629 58.8959 53.0629 58.8963C53.163 58.8968 53.2621 58.8775 53.3547 58.8396C53.7439 58.6801 53.9305 58.2353 53.771 57.8461L53.7671 57.8366ZM52.6905 55.2122L49.9627 48.5632C49.8032 48.174 49.3583 47.9878 48.9689 48.1476C48.5796 48.307 48.3938 48.7522 48.5532 49.1414L51.2811 55.7904C51.4019 56.0852 51.6861 56.2632 51.9863 56.2632C52.0853 56.2633 52.1834 56.2439 52.2749 56.206C52.6641 56.0465 52.8503 55.6014 52.6905 55.2122Z" fill="white"></path></svg>