<svg xmlns="http://www.w3.org/2000/svg" width="66" height="66" viewBox="0 0 66 66" fill="none"><path d="M32.52 65.04C50.4803 65.04 65.04 50.4803 65.04 32.52C65.04 14.5597 50.4803 0 32.52 0C14.5597 0 0 14.5597 0 32.52C0 50.4803 14.5597 65.04 32.52 65.04Z" fill="#2C6CB1"></path><path fill-rule="evenodd" clip-rule="evenodd" d="M35.9111 51.743H20.2457C20.1728 51.7416 20.1011 51.7239 20.0359 51.6912C19.9706 51.6586 19.9135 51.6117 19.8687 51.5541C19.824 51.4965 19.7926 51.4297 19.777 51.3584C19.7614 51.2871 19.7619 51.2133 19.7785 51.1422C20.3348 48.9838 21.1136 47.2259 21.8479 45.4902C23.4278 41.9077 24.6739 39.0594 22.916 34.5868C19.6227 26.3313 21.0468 21.4359 22.8492 18.8102C25.0077 15.6059 28.924 13.7812 33.5969 13.7812C35.9778 13.7812 38.3811 14.2708 40.5617 15.1831C42.7064 16.0152 44.5996 17.3872 46.058 19.1662C48.0606 21.6139 48.7727 24.6402 48.0829 27.8667C47.5488 30.4034 47.9939 31.2713 49.3067 33.4297C49.6628 33.986 49.9075 34.8316 49.5515 35.4769C49.3735 35.7884 48.9952 36.1667 48.1496 36.1889H47.037L47.5266 37.3015C47.5699 37.3903 47.5825 37.4909 47.5624 37.5876C47.5422 37.6843 47.4905 37.7715 47.4153 37.8356L46.8145 38.4364L47.3486 39.2152C47.4151 39.3053 47.4452 39.4173 47.4329 39.5287C47.4205 39.64 47.3665 39.7426 47.2818 39.816L46.325 40.7506V42.1524C46.325 43.8658 45.4794 44.8449 43.9885 44.8449H43.9218C42.8314 44.8449 40.2502 44.7559 39.2711 44.5111C39.1821 44.5557 38.8261 44.8894 38.1585 46.4693C37.669 47.5819 37.224 48.917 36.8679 50.0074L36.3561 51.4537C36.3229 51.5434 36.2616 51.6199 36.1815 51.672C36.1013 51.7241 36.0065 51.749 35.9111 51.743ZM20.8688 50.7862H35.5773L35.9556 49.6958C37.3575 45.5125 38.2253 43.5321 39.2711 43.5321L39.4937 43.5543C40.9768 43.8174 42.4828 43.9293 43.9885 43.8881C44.6338 43.8881 45.3682 43.6878 45.3682 42.1524V40.5503C45.3682 40.4316 45.4201 40.3204 45.5239 40.2165L46.325 39.4155L45.8132 38.6366C45.7439 38.5492 45.7101 38.4388 45.7183 38.3276C45.7266 38.2163 45.7763 38.1122 45.8577 38.0358L46.5253 37.3683L45.8577 35.8774C45.829 35.8041 45.8185 35.7249 45.827 35.6466C45.8354 35.5683 45.8627 35.4932 45.9064 35.4277C45.95 35.3622 46.0089 35.3082 46.0779 35.2703C46.1469 35.2323 46.224 35.2116 46.3027 35.2098H48.1496C48.4018 35.2247 48.5873 35.1505 48.7059 34.9873C48.8395 34.7648 48.7282 34.3198 48.4834 33.9192C47.0593 31.605 46.5698 30.4479 47.1483 27.6887C47.4772 26.3171 47.4836 24.8879 47.167 23.5134C46.8504 22.1389 46.2195 20.8565 45.3237 19.767C42.8537 16.7185 38.2475 14.7603 33.5969 14.7603C29.2355 14.7603 25.6085 16.4292 23.628 19.322C21.2693 22.8378 21.3138 28.0225 23.8061 34.253C25.7197 39.1039 24.3401 42.2637 22.738 45.913C22.0193 47.5067 21.3952 49.1413 20.8688 50.8084" fill="white"></path><path fill-rule="evenodd" clip-rule="evenodd" d="M25.1458 34.2073C25.0477 34.2117 24.9508 34.1836 24.8703 34.1273C24.7898 34.0709 24.7302 33.9895 24.7008 33.8957C23.5546 31.2666 22.9274 28.4407 22.8539 25.5735C22.8539 22.2209 23.9813 19.6693 26.2362 17.9188C27.6509 16.8837 29.2901 16.1975 31.0203 15.9162C32.7207 15.6241 34.4577 15.6166 36.1605 15.8939C36.2595 15.9381 36.341 16.0139 36.3922 16.1093C36.4435 16.2048 36.4616 16.3145 36.4438 16.4214C36.426 16.5283 36.3732 16.6262 36.2938 16.6999C36.2143 16.7736 36.1127 16.8188 36.0048 16.8285C32.8249 16.2063 29.5279 16.8704 26.837 18.6754C24.8343 20.2479 23.8256 22.5547 23.8107 25.5958C23.8107 27.8877 24.4338 30.6469 25.5909 33.5397C25.6195 33.613 25.6301 33.6922 25.6216 33.7705C25.6131 33.8488 25.5859 33.9239 25.5422 33.9894C25.4985 34.0549 25.4397 34.1089 25.3707 34.1468C25.3017 34.1848 25.2246 34.2055 25.1458 34.2073ZM19.5161 41.2166H15.5108C15.4015 41.1929 15.3036 41.1325 15.2335 41.0455C15.1633 40.9584 15.125 40.85 15.125 40.7382C15.125 40.6264 15.1633 40.5179 15.2335 40.4309C15.3036 40.3439 15.4015 40.2835 15.5108 40.2598H19.5161C19.6254 40.2835 19.7232 40.3439 19.7934 40.4309C19.8636 40.5179 19.9019 40.6264 19.9019 40.7382C19.9019 40.85 19.8636 40.9584 19.7934 41.0455C19.7232 41.1325 19.6254 41.1929 19.5161 41.2166ZM19.5161 37.7453C19.4489 37.748 19.3819 37.7353 19.3202 37.7083C19.2585 37.6814 19.2038 37.6407 19.1601 37.5895L16.3341 34.5188C16.2572 34.4226 16.2194 34.3009 16.2282 34.1781C16.237 34.0552 16.2918 33.9402 16.3817 33.856C16.4715 33.7717 16.5898 33.7245 16.713 33.7236C16.8361 33.7227 16.9551 33.7683 17.0461 33.8512L19.8721 36.9442C19.9302 37.0144 19.9675 37.0994 19.9799 37.1897C19.9923 37.2799 19.9792 37.3718 19.9422 37.455C19.9052 37.5383 19.8458 37.6095 19.7705 37.6608C19.6952 37.7121 19.6071 37.7414 19.5161 37.7453ZM16.6901 47.7587C16.5991 47.7547 16.511 47.7255 16.4357 47.6742C16.3605 47.6229 16.301 47.5516 16.264 47.4684C16.227 47.3852 16.214 47.2933 16.2263 47.203C16.2387 47.1128 16.276 47.0278 16.3341 46.9576L19.1601 43.8868C19.1974 43.825 19.248 43.7722 19.3082 43.7323C19.3684 43.6923 19.4366 43.6661 19.5081 43.6557C19.5796 43.6452 19.6525 43.6507 19.7216 43.6717C19.7907 43.6927 19.8543 43.7288 19.9078 43.7773C19.9613 43.8258 20.0035 43.8855 20.0312 43.9522C20.0589 44.019 20.0715 44.091 20.0681 44.1631C20.0647 44.2353 20.0453 44.3058 20.0114 44.3696C19.9776 44.4334 19.93 44.4889 19.8721 44.5321L17.0461 47.6029C17.0024 47.6541 16.9477 47.6947 16.886 47.7217C16.8244 47.7487 16.7574 47.7613 16.6901 47.7587Z" fill="white"></path><path fill-rule="evenodd" clip-rule="evenodd" d="M25.1458 34.2073C25.0477 34.2117 24.9508 34.1836 24.8703 34.1273C24.7898 34.0709 24.7302 33.9895 24.7008 33.8957C23.5546 31.2666 22.9274 28.4407 22.8539 25.5735C22.8539 22.2209 23.9813 19.6693 26.2362 17.9188C27.6509 16.8837 29.2901 16.1975 31.0203 15.9162C32.7207 15.6241 34.4577 15.6166 36.1605 15.8939C36.2595 15.9381 36.341 16.0139 36.3922 16.1093C36.4435 16.2048 36.4616 16.3145 36.4438 16.4214C36.426 16.5283 36.3732 16.6262 36.2938 16.6999C36.2143 16.7736 36.1127 16.8188 36.0048 16.8285C32.8249 16.2063 29.5279 16.8704 26.837 18.6754C24.8343 20.2479 23.8256 22.5547 23.8107 25.5958C23.8107 27.8877 24.4338 30.6469 25.5909 33.5397C25.6195 33.613 25.6301 33.6922 25.6216 33.7705C25.6131 33.8488 25.5859 33.9239 25.5422 33.9894C25.4985 34.0549 25.4397 34.1089 25.3707 34.1468C25.3017 34.1848 25.2246 34.2055 25.1458 34.2073ZM19.5161 41.2166H15.5108C15.4015 41.1929 15.3036 41.1325 15.2335 41.0455C15.1633 40.9584 15.125 40.85 15.125 40.7382C15.125 40.6264 15.1633 40.5179 15.2335 40.4309C15.3036 40.3439 15.4015 40.2835 15.5108 40.2598H19.5161C19.6254 40.2835 19.7232 40.3439 19.7934 40.4309C19.8636 40.5179 19.9019 40.6264 19.9019 40.7382C19.9019 40.85 19.8636 40.9584 19.7934 41.0455C19.7232 41.1325 19.6254 41.1929 19.5161 41.2166ZM19.5161 37.7453C19.4489 37.748 19.3819 37.7353 19.3202 37.7083C19.2585 37.6814 19.2038 37.6407 19.1601 37.5895L16.3341 34.5188C16.2572 34.4226 16.2194 34.3009 16.2282 34.1781C16.237 34.0552 16.2918 33.9402 16.3817 33.856C16.4715 33.7717 16.5898 33.7245 16.713 33.7236C16.8361 33.7227 16.9551 33.7683 17.0461 33.8512L19.8721 36.9442C19.9302 37.0144 19.9675 37.0994 19.9799 37.1897C19.9923 37.2799 19.9792 37.3718 19.9422 37.455C19.9052 37.5383 19.8458 37.6095 19.7705 37.6608C19.6952 37.7121 19.6071 37.7414 19.5161 37.7453ZM16.6901 47.7587C16.5991 47.7547 16.511 47.7255 16.4357 47.6742C16.3605 47.6229 16.301 47.5516 16.264 47.4684C16.227 47.3852 16.214 47.2933 16.2263 47.203C16.2387 47.1128 16.276 47.0278 16.3341 46.9576L19.1601 43.8868C19.1974 43.825 19.248 43.7722 19.3082 43.7323C19.3684 43.6923 19.4366 43.6661 19.5081 43.6557C19.5796 43.6452 19.6525 43.6507 19.7216 43.6717C19.7907 43.6927 19.8543 43.7288 19.9078 43.7773C19.9613 43.8258 20.0035 43.8855 20.0312 43.9522C20.0589 44.019 20.0715 44.091 20.0681 44.1631C20.0647 44.2353 20.0453 44.3058 20.0114 44.3696C19.9776 44.4334 19.93 44.4889 19.8721 44.5321L17.0461 47.6029C17.0024 47.6541 16.9477 47.6947 16.886 47.7217C16.8244 47.7487 16.7574 47.7613 16.6901 47.7587Z" fill="white"></path><ellipse cx="44.2361" cy="28.0967" rx="0.775148" ry="0.717773" fill="white"></ellipse></svg>