<svg xmlns="http://www.w3.org/2000/svg" width="70" height="70" viewBox="0 0 70 70" fill="none"><circle cx="35" cy="35" r="35" fill="#F2F5F8"></circle><path d="M39.3466 17.6914H31.3654C31.2041 17.6914 31.0464 17.739 30.912 17.8281C27.8127 19.8834 24.5898 21.294 21.333 22.0208C21.1509 22.0615 20.9882 22.1629 20.8715 22.3085C20.7549 22.454 20.6913 22.6349 20.6913 22.8215V34.9774C20.6913 38.4554 22.3566 42.2089 25.3805 45.5465C28.0951 48.5426 31.6353 50.9317 35.0932 52.1012C35.2637 52.1589 35.4484 52.1589 35.6189 52.1012C39.0768 50.9317 42.6169 48.5426 45.3316 45.5465C48.3554 42.2089 50.0207 38.4555 50.0207 34.9774V22.8215C50.0207 22.4372 49.7541 22.1045 49.3791 22.0208C46.1221 21.294 42.8993 19.8834 39.8001 17.8281C39.6656 17.7389 39.5079 17.6914 39.3466 17.6914ZM48.3801 34.9774C48.3801 38.0475 46.8656 41.4097 44.1158 44.4448C41.6894 47.1227 38.4337 49.3534 35.356 50.4555C32.2783 49.3534 29.0226 47.1227 26.5963 44.4448C23.8464 41.4097 22.3319 38.0474 22.3319 34.9774V23.4705C25.4927 22.6823 28.6103 21.2921 31.6111 19.332H39.1009C42.1018 21.2922 45.2194 22.6823 48.3801 23.4705V34.9774ZM52.9569 18.8384C47.9139 18.4373 43.6548 16.0688 40.9698 14.1526C40.8307 14.0533 40.6641 14 40.4932 14H30.2188C30.048 14 29.8813 14.0533 29.7423 14.1526C27.0573 16.0688 22.7982 18.4373 17.7553 18.8384C17.5496 18.8548 17.3577 18.9481 17.2177 19.0996C17.0777 19.2512 17 19.4499 17 19.6562V34.9773C17 37.4502 17.5943 39.94 18.7664 42.3774C19.8166 44.5614 21.3037 46.6558 23.1862 48.6024C26.5912 52.1231 31.0613 54.8781 35.1437 55.972C35.2828 56.0093 35.4293 56.0093 35.5683 55.972C39.6508 54.8781 44.1209 52.1231 47.5258 48.6024C49.4084 46.6559 50.8955 44.5614 51.9457 42.3774C53.1177 39.94 53.7121 37.4502 53.7121 34.9773V19.6562C53.7121 19.4499 53.6343 19.2512 53.4944 19.0996C53.3544 18.9481 53.1625 18.8548 52.9569 18.8384ZM52.0715 34.9774C52.0715 44.4571 42.2652 52.3706 35.356 54.3287C28.447 52.3706 18.6405 44.457 18.6405 34.9774V20.3998C22.616 19.9355 26.688 18.3003 30.4796 15.6406H40.2324C44.0241 18.3003 48.096 19.9355 52.0715 20.3998V34.9774ZM39.0429 26.1049C39.0429 25.6519 38.6757 25.2846 38.2226 25.2846H32.4895C32.0365 25.2846 31.6692 25.6519 31.6692 26.1049V29.5958H28.1783C27.7252 29.5958 27.358 29.9631 27.358 30.4162V36.1491C27.358 36.6021 27.7252 36.9695 28.1783 36.9695H31.6692V40.4604C31.6692 40.9133 32.0365 41.2807 32.4895 41.2807H38.2226C38.6757 41.2807 39.0429 40.9133 39.0429 40.4604V36.9695H42.5337C42.9868 36.9695 43.3541 36.6021 43.3541 36.1491V30.4162C43.3541 29.9631 42.9868 29.5958 42.5337 29.5958H39.0429V26.1049ZM41.7134 31.2365V35.3288H38.2226C37.7695 35.3288 37.4023 35.6962 37.4023 36.1491V39.6401H33.3098V36.1491C33.3098 35.6962 32.9426 35.3288 32.4895 35.3288H28.9986V31.2365H32.4895C32.9426 31.2365 33.3098 30.8692 33.3098 30.4162V26.9252H37.4023V30.4162C37.4023 30.8692 37.7695 31.2365 38.2226 31.2365H41.7134Z" fill="#1A528E"></path></svg>